<svg width="387" height="128" viewBox="0 0 387 128" fill="none" xmlns="http://www.w3.org/2000/svg">
<path fill-rule="evenodd" clip-rule="evenodd" d="M385.156 101.7C350.624 30.4079 315.217 -26.0869 283.137 -69.8704L350.403 -144.514C353.626 -148.106 355.311 -152.822 355.096 -157.646C354.88 -162.47 352.781 -167.016 349.251 -170.306C347.515 -171.919 345.475 -173.171 343.25 -173.987C341.026 -174.803 338.662 -175.168 336.295 -175.06C333.929 -174.952 331.607 -174.373 329.467 -173.357C327.326 -172.341 325.409 -170.908 323.826 -169.143L260.745 -99.1425C206.126 -167.481 165.704 -195.95 164.45 -196.79C162.504 -198.147 160.308 -199.103 157.99 -199.601C155.672 -200.1 153.278 -200.131 150.948 -199.694C148.618 -199.257 146.398 -198.359 144.417 -197.054C142.437 -195.749 140.735 -194.062 139.413 -192.091C133.789 -183.783 135.854 -172.42 144.049 -166.705L144.169 -166.622C146.889 -164.665 184.97 -136.852 236.187 -71.8736L169.4 2.25282L134.231 -36.5639L117.047 -24.6076L109.903 -9.28581L156.07 41.6146C156.273 41.8361 156.494 42.0208 156.688 42.2331C156.872 42.4177 157.038 42.6023 157.241 42.7869C157.268 42.8118 157.296 42.8364 157.324 42.8608C157.554 43.0731 157.785 43.2577 158.025 43.4516C158.255 43.6454 158.504 43.8578 158.762 44.0424L159.444 44.5224C159.721 44.707 159.997 44.8917 160.292 45.0486C161.008 45.4939 161.764 45.8709 162.551 46.1748C162.883 46.3317 163.242 46.461 163.593 46.581C163.786 46.6456 163.989 46.7194 164.192 46.7748C164.57 46.8948 164.966 46.9964 165.344 47.0795L165.897 47.2179C166.321 47.301 166.754 47.3564 167.188 47.4026L167.63 47.4764C168.792 47.5906 169.962 47.5906 171.124 47.4764L171.557 47.4118C171.981 47.3564 172.424 47.301 172.866 47.2179L173.382 47.0887C173.976 46.9582 174.561 46.7918 175.134 46.5902C175.503 46.4702 175.871 46.3317 176.231 46.1748L176.812 45.9256C177.162 45.7686 177.503 45.5932 177.826 45.4086C178.363 45.1168 178.886 44.7995 179.393 44.4578C179.577 44.3378 179.762 44.2178 179.918 44.0885C180.287 43.8301 180.619 43.5531 180.96 43.2577C181.089 43.1654 181.218 43.0547 181.347 42.9439L181.513 42.7962C181.858 42.471 182.19 42.1322 182.509 41.7807L182.656 41.6238L182.702 41.5684L182.868 41.4023L258.376 -42.3984C288.078 -1.14426 320.775 51.6212 352.818 117.79C354.283 120.844 356.577 123.422 359.439 125.228C362.301 127.034 365.614 127.995 368.997 128C371.661 128 374.371 127.4 376.924 126.126C381.227 123.952 384.501 120.17 386.04 115.597C387.579 111.025 387.258 106.029 385.147 101.691" fill="white" fill-opacity="0.1"/>
<path fill-rule="evenodd" clip-rule="evenodd" d="M153.156 -148.806L93.513 -82.1845L31.2428 -151.972C29.6723 -153.75 27.7613 -155.194 25.623 -156.218C23.4847 -157.242 21.1627 -157.826 18.7949 -157.934C16.4271 -158.043 14.0617 -157.674 11.8389 -156.85C9.61619 -156.025 7.58143 -154.762 5.8554 -153.135C2.32759 -149.807 0.234633 -145.233 0.021189 -140.384C-0.192255 -135.535 1.49063 -130.794 4.71232 -127.168L69.1673 -54.934L4.70311 17.3277C1.48363 20.959 -0.196742 25.7033 0.0183758 30.5545C0.233494 35.4057 2.32719 39.9822 5.8554 43.3135C7.58263 44.9391 9.61832 46.2008 11.8417 47.0236C14.0652 47.8464 16.431 48.2137 18.7989 48.1035C21.1667 47.9933 23.4883 47.4079 25.6259 46.3821C27.7636 45.3563 29.6736 43.9109 31.2428 42.1319L93.4946 -27.6559L109.903 -9.28581L117.047 -24.6076L134.231 -36.5639L117.831 -54.934L177.179 -121.463C166.523 -132.374 159.867 -142.953 153.147 -148.815L153.156 -148.806Z" fill="white" fill-opacity="0.1"/>
</svg>
