<?xml version="1.0" encoding="UTF-8"?>
<svg width="90px" height="91px" viewBox="0 0 90 91" version="1.1" xmlns="http://www.w3.org/2000/svg" xmlns:xlink="http://www.w3.org/1999/xlink">
    <!-- Generator: Sketch 63.1 (92452) - https://sketch.com -->
    <title>running-costs</title>
    <desc>Created with Sketch.</desc>
    <defs>
        <polygon id="path-running-costs-1" points="0.0002109375 0.308482279 89.6899219 0.308482279 89.6899219 90.2945736 0.0002109375 90.2945736"></polygon>
    </defs>
    <g id="Page-running-costs-1" stroke="none" stroke-width="1" fill="none" fill-rule="evenodd">
        <g id="Home-running-costs-page" transform="translate(-629.000000, -1554.000000)">
            <g id="running-costs" transform="translate(629.000000, 1554.000000)">
                <g id="Group-running-costs-6">
                    <g>
                        <g id="Group-running-costs-3" transform="translate(0.000000, 0.397155)">
                            <mask id="mask-running-costs-2" fill="white">
                                <use xlink:href="#path-running-costs-1"></use>
                            </mask>
                            <g id="Clip-running-costs-2"></g>
                            <path d="M14.6730234,75.5711264 C22.4066953,83.3272891 33.0555234,88.1114907 44.8490391,88.1114907 C56.6369297,88.1114907 67.2892734,83.3272891 75.0173203,75.5711264 C82.7453672,67.8142581 87.5139609,57.1333977 87.5139609,45.3012814 C87.5139609,33.470576 82.7453672,22.7840721 75.0173203,15.0293202 C67.2892734,7.2766845 56.6369297,2.48895581 44.8490391,2.48895581 C33.0555234,2.48895581 22.4066953,7.2766845 14.6730234,15.0293202 C6.94849219,22.7840721 2.17778906,33.470576 2.17638281,45.3012814 C2.17778906,57.1333977 6.94849219,67.8163744 14.6730234,75.5711264 L14.6730234,75.5711264 Z M44.8490391,90.2947859 C32.4627891,90.2969016 21.2521641,85.2580411 13.1345859,77.1138938 C5.01982031,68.9725682 0.0023203125,57.7294829 0.0002109375,45.3012814 C0.0023203125,32.876607 5.01982031,21.6285837 13.1345859,13.4844364 C21.2535703,5.33958372 32.4627891,0.306366667 44.8490391,0.308482279 C57.2303672,0.306366667 68.4416953,5.33958372 76.5571641,13.4844364 C84.6740391,21.6285837 89.6922422,32.876607 89.6901335,45.3012814 C89.6922422,57.7294829 84.6740391,68.9725682 76.5571641,77.1138938 C68.4431016,85.2559248 57.2366953,90.2947859 44.8567734,90.2947859 L44.8490391,90.2947859 Z" id="Fill-running-costs-1" fill="#D14200" mask="url(#mask-running-costs-2)"></path>
                        </g>
                        <path d="M65.5538203,60.0989395 C65.2634297,60.3289085 64.8506953,60.5003271 64.3275703,60.6096682 L64.3275703,57.2342031 C64.8542109,57.3329628 65.2683516,57.488862 65.5629609,57.7019008 C65.8716328,57.9255209 66.0228047,58.3142109 66.0228047,58.8877225 C66.0228047,59.4541798 65.8702266,59.8506295 65.5538203,60.0989395 L65.5538203,60.0989395 Z M62.7026484,54.7123039 C62.2034297,54.6050791 61.8293672,54.4385984 61.5881953,54.2156837 C61.3188984,53.9652574 61.1881172,53.618893 61.1881172,53.1575442 C61.1881172,52.2101566 61.6831172,51.6493426 62.7026484,51.4482961 L62.7026484,54.7123039 Z M67.2729609,55.9834822 C66.6710859,55.481924 65.8217109,55.1454357 64.7522578,54.9810713 L64.3275703,54.9175829 L64.3275703,51.4200791 C64.7585859,51.4814512 65.1157734,51.5752729 65.3906953,51.6994279 C65.6874141,51.8362806 66.0073359,52.0472031 66.3441328,52.3258465 L66.5030391,52.4570558 L68.0864766,50.8924202 L67.8973359,50.7308775 C67.2624141,50.1834667 66.7210078,49.8222884 66.2386641,49.6219473 C65.8034297,49.4420636 65.2106953,49.3101488 64.4731172,49.2325519 L64.4731172,48.2181488 L62.5374141,48.2181488 L62.5374141,49.2635907 C61.9629609,49.3609395 61.4686641,49.4935597 61.0735078,49.657924 C60.6171797,49.8483891 60.1847578,50.1594822 59.7867891,50.5862651 C59.1427266,51.2966295 58.8157734,52.1995752 58.8157734,53.2668853 C58.8157734,54.2996295 59.1413203,55.160955 59.7825703,55.8247612 C60.4203047,56.4843349 61.3111641,56.8821953 62.4298359,57.0091721 L62.7026484,57.0409163 L62.7026484,60.6534047 C62.1232734,60.5962651 61.6374141,60.4812806 61.2549141,60.309862 C60.8998359,60.1483194 60.5025703,59.8668543 60.0729609,59.4696992 L59.9126484,59.3215597 L58.2764766,60.9637922 L58.4494453,61.1253349 C59.1237422,61.7517535 59.7776484,62.1954667 60.3914766,62.4416605 C60.9525703,62.6695132 61.6753828,62.819769 62.5374141,62.8917225 L62.5374141,64.2461411 L64.4731172,64.2461411 L64.4731172,62.8183581 C65.2936641,62.6843271 65.8927266,62.5129085 66.3026484,62.2956372 C67.7159297,61.5598775 68.4331172,60.395924 68.4331172,58.8334047 C68.4331172,57.6101953 68.0442891,56.6515209 67.2729609,55.9834822 L67.2729609,55.9834822 Z M63.4050703,67.5503581 C57.1845234,67.5503581 52.1241328,62.4734047 52.1241328,56.2324977 C52.1241328,49.9915907 57.1845234,44.9153426 63.4050703,44.9153426 C69.6256172,44.9153426 74.6867109,49.9915907 74.6867109,56.2324977 C74.6867109,62.4734047 69.6256172,67.5503581 63.4050703,67.5503581 L63.4050703,67.5503581 Z M63.4050703,42.473862 C55.8422578,42.473862 49.6899141,48.6463426 49.6899141,56.2324977 C49.6899141,63.8193581 55.8422578,69.9918388 63.4050703,69.9918388 C70.9678828,69.9918388 77.1209297,63.8193581 77.1209297,56.2324977 C77.1209297,48.6463426 70.9678828,42.473862 63.4050703,42.473862 L63.4050703,42.473862 Z M21.3638203,35.332831 L21.3638203,33.1657612 L25.1768672,33.1657612 L24.7479609,35.332831 L21.3638203,35.332831 Z M27.2728828,35.0972186 L29.1917109,25.504831 C29.2655391,25.1436527 29.6965547,24.7888233 30.0635859,24.7888233 L55.9167891,24.7888233 C56.2838203,24.7888233 56.7162422,25.1436527 56.7886641,25.504831 L58.7088984,35.0972186 C58.7250703,35.1790481 58.7194453,35.2488853 58.6927266,35.2806295 C58.6681172,35.3123736 58.5999141,35.332831 58.5169453,35.332831 L27.4634297,35.332831 C27.3804609,35.332831 27.3122578,35.3123736 27.2862422,35.2806295 C27.2616328,35.2488853 27.2560078,35.1790481 27.2728828,35.0972186 L27.2728828,35.0972186 Z M64.6165547,33.1657612 L64.6165547,35.332831 L61.2324141,35.332831 L60.8042109,33.1657612 L64.6165547,33.1657612 Z M46.6671797,55.5313039 L23.3972578,55.5313039 C22.8846797,55.5313039 22.4691328,55.1136915 22.4691328,54.5994357 L22.4691328,42.1444279 C22.4691328,41.8961178 22.5689766,41.6562729 22.7426484,41.482738 L26.2062422,38.0430791 C26.3806172,37.8695442 26.6119453,37.7743116 26.8566328,37.7743116 L59.1216328,37.7743116 C59.3670234,37.7743116 59.5983516,37.8695442 59.7734297,38.0437845 L61.2992109,39.5590403 C61.9896797,39.4722729 62.6913984,39.4214822 63.4050703,39.4214822 C63.8318672,39.4214822 64.2537422,39.4440558 64.6735078,39.4750946 L62.9606953,37.7743116 L64.9716328,37.7743116 C66.1177266,37.7743116 67.0493672,36.8375054 67.0493672,35.6883659 L67.0493672,32.8095209 C67.0493672,31.6603814 66.1177266,30.7242806 64.9716328,30.7242806 L60.3148359,30.7242806 L59.1743672,25.0237302 C58.8734297,23.5232884 57.4432734,22.3473426 55.9167891,22.3473426 L30.0635859,22.3473426 C28.5371016,22.3473426 27.1076484,23.5232884 26.8067109,25.0237302 L25.6655391,30.7242806 L21.0087422,30.7242806 C19.8633516,30.7242806 18.9310078,31.6603814 18.9310078,32.8095209 L18.9310078,35.6883659 C18.9310078,36.8375054 19.8633516,37.7743116 21.0087422,37.7743116 L23.0182734,37.7743116 L21.0340547,39.7466837 C20.3991328,40.3738078 20.0349141,41.2471256 20.0349141,42.1444279 L20.0349141,54.5994357 C20.0349141,56.4603504 21.5424141,57.9727845 23.3972578,57.9727845 L46.7381953,57.9727845 C46.6791328,57.4006837 46.6488984,56.8208233 46.6488984,56.2324977 C46.6488984,55.9982961 46.6566328,55.7640946 46.6671797,55.5313039 L46.6671797,55.5313039 Z M46.8535078,46.7099473 L39.1535859,46.7099473 C38.4813984,46.7099473 37.9364766,47.2559473 37.9364766,47.9303349 C37.9364766,48.6040171 38.4813984,49.1507225 39.1535859,49.1507225 L46.8535078,49.1507225 C47.5249922,49.1507225 48.0706172,48.6040171 48.0706172,47.9303349 C48.0706172,47.2559473 47.5249922,46.7099473 46.8535078,46.7099473 L46.8535078,46.7099473 Z M32.0703047,63.5230791 L27.5738203,63.5230791 L27.5738203,60.7197147 L25.1410078,60.7197147 L25.1410078,64.0740171 C25.1410078,65.1152264 25.9861641,65.9638543 27.0260859,65.9638543 L32.6194453,65.9638543 C33.6593672,65.9638543 34.5031172,65.1152264 34.5031172,64.0740171 L34.5031172,60.7197147 L32.0703047,60.7197147 L32.0703047,63.5230791 Z M32.5315547,47.928924 C32.5315547,49.4293659 31.3172578,50.6490481 29.8231172,50.6490481 C28.3282734,50.6490481 27.1125703,49.4293659 27.1125703,47.928924 C27.1125703,46.4305984 28.3282734,45.2116217 29.8231172,45.2116217 C31.3172578,45.2116217 32.5315547,46.4305984 32.5315547,47.928924 L32.5315547,47.928924 Z M24.6797578,47.928924 C24.6797578,50.774614 26.9874141,53.0898233 29.8231172,53.0898233 C32.6574141,53.0898233 34.9643672,50.774614 34.9643672,47.928924 C34.9643672,45.084645 32.6574141,42.7701411 29.8231172,42.7701411 C26.9874141,42.7701411 24.6797578,45.084645 24.6797578,47.928924 L24.6797578,47.928924 Z" id="Fill-running-costs-4" fill="#D14200"></path>
                    </g>
                </g>
            </g>
        </g>
    </g>
</svg>