<?xml version="1.0" encoding="UTF-8"?>
<svg width="90px" height="91px" viewBox="0 0 90 91" version="1.1" xmlns="http://www.w3.org/2000/svg" xmlns:xlink="http://www.w3.org/1999/xlink">
    <!-- Generator: Sketch 63.1 (92452) - https://sketch.com -->
    <title>tax</title>
    <desc>Created with Sketch.</desc>
    <defs>
        <polygon id="path-tax-1" points="0.0002109375 0.308271318 89.6899219 0.308271318 89.6899219 90.2942921 0.0002109375 90.2942921"></polygon>
    </defs>
    <g id="Page-tax-1" stroke="none" stroke-width="1" fill="none" fill-rule="evenodd">
        <g id="Home-tax-page" transform="translate(-866.000000, -1554.000000)">
            <g id="tax" transform="translate(866.000000, 1554.000000)">
                <g id="Group-tax-26">
                    <g>
                        <g id="Group-tax-3" transform="translate(0.000000, 0.397155)">
                            <mask id="mask-tax-2" fill="white">
                                <use xlink:href="#path-tax-1"></use>
                            </mask>
                            <g id="Clip-tax-2"></g>
                            <path d="M14.6730234,75.571338 C22.4066953,83.3267953 33.0555234,88.1117023 44.8490391,88.1117023 C56.6369297,88.1117023 67.2892734,83.3267953 75.0173203,75.571338 C82.7453672,67.8144698 87.5139609,57.1336093 87.5139609,45.3007876 C87.5139609,33.4707876 82.7453672,22.7842837 75.0173203,15.0288264 C67.2892734,7.27689612 56.6369297,2.48916744 44.8490391,2.48916744 C33.0555234,2.48916744 22.4066953,7.27689612 14.6730234,15.0288264 C6.94849219,22.7842837 2.17778906,33.4707876 2.17638281,45.3007876 C2.17778906,57.1336093 6.94849219,67.816586 14.6730234,75.571338 L14.6730234,75.571338 Z M44.8490391,90.2942921 C32.4627891,90.2964078 21.2521641,85.2575473 13.1345859,77.1141054 C5.01982031,68.9727798 0.0023203125,57.7289891 0.0002109375,45.3007876 C0.0023203125,32.8761132 5.01982031,21.6280899 13.1345859,13.4846481 C21.2535703,5.33979535 32.4627891,0.306578295 44.8490391,0.307988851 C57.2303672,0.306578295 68.4416953,5.33979535 76.5571641,13.4846481 C84.6740391,21.6280899 89.6922422,32.8761132 89.6901335,45.3007876 C89.6922422,57.7289891 84.6740391,68.9727798 76.5571641,77.1141054 C68.4431016,85.2561364 57.2366953,90.2942921 44.8567734,90.2942921 L44.8490391,90.2942921 Z" id="Fill-tax-1" fill="#D14200" mask="url(#mask-tax-2)"></path>
                        </g>
                        <path d="M52.4059453,34.6238775 L52.4460234,34.6309318 C52.5086016,34.6408078 52.5711797,34.6457457 52.6323516,34.6457457 C53.1814922,34.6457457 53.6645391,34.2478853 53.7566484,33.6877767 C53.8593047,33.0634744 53.4381328,32.4751488 52.8165703,32.3721566 L52.7673516,32.3643969 C52.1450859,32.2628155 51.5600859,32.688893 51.4602422,33.3131953 C51.3603984,33.9367922 51.7836797,34.523707 52.4059453,34.6238775" id="Fill-tax-4" fill="#D14200"></path>
                        <path d="M30.4171172,33.4162581 C29.0755547,33.953793 27.8092266,34.648638 26.6427422,35.4817465 L26.6427422,29.6372891 C28.5770391,29.9420333 30.1091484,31.4770411 30.4171172,33.4162581 M72.8837578,46.8574519 C71.5555547,45.5249016 69.3948516,45.5249016 68.0666484,46.8574519 C67.6208672,47.3039868 67.6208672,48.0291651 68.0666484,48.4764054 C68.5117266,48.9229403 69.2345391,48.9229403 69.6796172,48.4764054 C70.1183672,48.0362194 70.8320391,48.0362194 71.2714922,48.4764054 C71.9310234,49.1373899 71.9310234,50.2138705 71.2714922,50.8762659 C70.8179766,51.3312659 70.2153984,51.5816922 69.5741484,51.5816922 C68.9328984,51.5816922 68.3303203,51.3312659 67.8775078,50.8762659 C67.8768047,50.8755605 67.8753984,50.874855 67.8746953,50.8741496 C67.8831328,50.654762 67.8880547,50.4339636 67.8880547,50.2131651 C67.8880547,43.1271574 63.7297734,36.6591031 57.2947734,33.7337 C56.7210234,33.4733977 56.0446172,33.7280566 55.7851641,34.3043899 C55.5250078,34.8800178 55.7795391,35.5579326 56.3532891,35.8182349 C61.9747734,38.3732891 65.6064141,44.0230488 65.6064141,50.2131651 C65.6064141,55.6089713 62.9028984,60.5772891 58.3733672,63.5019868 C58.0471172,63.7129093 57.8502422,64.0754984 57.8502422,64.4648938 L57.8502422,69.9044364 C57.8502422,70.2832504 57.5429766,70.5908163 57.1653984,70.5908163 L51.6901641,70.5908163 C51.3125859,70.5908163 51.0060234,70.2832504 51.0060234,69.9044364 L51.0060234,67.6498938 C51.0060234,66.7434209 50.2705547,66.005545 49.3670391,66.005545 L37.5868828,66.005545 C36.6833672,66.005545 35.9486016,66.7434209 35.9486016,67.6498938 L35.9486016,69.9044364 C35.9486016,70.2832504 35.6413359,70.5908163 35.2644609,70.5908163 L29.7885234,70.5908163 C29.4109453,70.5908163 29.1043828,70.2832504 29.1043828,69.9044364 L29.1043828,64.4648938 C29.1043828,64.0754984 28.9075078,63.7129093 28.5812578,63.5019868 C25.3173516,61.3941729 22.9513359,58.1760178 21.9191484,54.438669 C21.7665703,53.8870256 21.2321953,53.5329016 20.6661797,53.6104984 C20.6085234,53.6182581 20.5529766,53.629545 20.4988359,53.6464752 L19.4047734,53.6464752 C18.5891484,53.6464752 17.9253984,52.9798473 17.9253984,52.1615527 L17.9253984,48.2633667 C17.9253984,47.4450721 18.5891484,46.7791496 19.4047734,46.7791496 L20.5128984,46.7791496 C20.5628203,46.7932581 20.6141484,46.8038395 20.6661797,46.8108938 C21.2314922,46.8891961 21.7665703,46.5343667 21.9191484,45.9827233 C23.6931328,39.5647543 29.3314922,34.9336302 35.9507109,34.4595837 C36.5793047,34.4151419 37.0525078,33.867731 37.0075078,33.2370798 C36.9625078,32.6064287 36.4161797,32.1330876 35.7882891,32.176824 C34.6998516,32.2551264 33.6360234,32.4321884 32.6038359,32.6988395 C31.9436016,29.6133047 29.2056328,27.2924519 25.9353984,27.2924519 L25.5022734,27.2924519 C24.8722734,27.2924519 24.3611016,27.8052969 24.3611016,28.4366535 L24.3611016,37.4153202 C22.4085234,39.3679403 20.8904766,41.7741496 19.9883672,44.4907465 L19.4047734,44.4907465 C17.3312578,44.4907465 15.6437578,46.1837698 15.6437578,48.2640721 L15.6437578,52.1615527 C15.6437578,54.241855 17.3312578,55.9348783 19.4047734,55.9348783 L19.9897734,55.9348783 C21.2188359,59.6376612 23.6108672,62.8410023 26.8227422,65.0764984 L26.8227422,69.9044364 C26.8227422,71.5452581 28.1530547,72.8792194 29.7885234,72.8792194 L35.2644609,72.8792194 C36.8992266,72.8792194 38.2295391,71.5452581 38.2295391,69.9044364 L38.2295391,68.2946535 L48.7243828,68.2946535 L48.7243828,69.9044364 C48.7243828,71.5452581 50.0546953,72.8792194 51.6901641,72.8792194 L57.1653984,72.8792194 C58.8008672,72.8792194 60.1311797,71.5452581 60.1311797,69.9044364 L60.1311797,65.0764984 C64.1087578,62.3098163 66.7623516,58.126638 67.6018828,53.4355527 C68.2114922,53.7198395 68.8815703,53.8700953 69.5741484,53.8700953 C70.8243047,53.8700953 71.9999297,53.3819403 72.8837578,52.494514 C74.4334453,50.9404597 74.4334453,48.4122116 72.8837578,46.8574519" id="Fill-tax-6" fill="#D14200"></path>
                        <path d="M27.752625,42.7879884 C27.5402812,43.0010271 27.4179375,43.2951899 27.4179375,43.596407 C27.4179375,43.897624 27.5402812,44.1931977 27.752625,44.4062364 C27.9649688,44.6192752 28.258875,44.7420194 28.5591094,44.7420194 C28.8593437,44.7420194 29.15325,44.6192752 29.3655937,44.4062364 C29.5779375,44.1917868 29.6995781,43.897624 29.6995781,43.596407 C29.6995781,43.2966008 29.5779375,43.0010271 29.3655937,42.7879884 C29.15325,42.5735388 28.8593437,42.4522054 28.5591094,42.4522054 C28.2581719,42.4522054 27.9649688,42.5735388 27.752625,42.7879884" id="Fill-tax-8" fill="#D14200"></path>
                        <path d="M51.4940625,39.8057279 C51.4940625,39.1736659 50.9828906,38.6608209 50.3528906,38.6608209 L37.3992188,38.6608209 C36.7692188,38.6608209 36.25875,39.1736659 36.25875,39.8057279 C36.25875,40.4377899 36.7692188,40.9499295 37.3992188,40.9499295 L50.3528906,40.9499295 C50.9828906,40.9499295 51.4940625,40.4377899 51.4940625,39.8057279" id="Fill-tax-10" fill="#D14200"></path>
                        <path d="M43.8764063,26.4832574 C45.9520313,26.4832574 47.6409375,28.1776915 47.6409375,30.2601101 C47.6409375,32.3425287 45.9520313,34.0369628 43.8764063,34.0369628 C41.8007813,34.0369628 40.111875,32.3425287 40.111875,30.2601101 C40.111875,28.1776915 41.8007813,26.4832574 43.8764063,26.4832574 M43.8764063,36.3253659 C47.2099219,36.3253659 49.921875,33.6045364 49.921875,30.2601101 C49.921875,26.9156837 47.2099219,24.1948543 43.8764063,24.1948543 C40.5428906,24.1948543 37.8302344,26.9156837 37.8302344,30.2601101 C37.8302344,33.6045364 40.5428906,36.3253659 43.8764063,36.3253659" id="Fill-tax-12" fill="#D14200"></path>
                        <path d="M43.8743672,21.5107775 C44.5043672,21.5107775 45.0155391,20.9979326 45.0155391,20.3658705 L45.0155391,15.4292969 C45.0155391,14.7965295 44.5043672,14.2843899 43.8743672,14.2843899 C43.2443672,14.2843899 42.7331953,14.7965295 42.7331953,15.4292969 L42.7331953,20.3658705 C42.7331953,20.9979326 43.2443672,21.5107775 43.8743672,21.5107775" id="Fill-tax-14" fill="#D14200"></path>
                        <path d="M50.3531719,23.6787643 C50.6449688,23.6787643 50.9374688,23.567307 51.1596563,23.3436868 L54.1634062,20.3301054 C54.6091875,19.8828651 54.6091875,19.1583922 54.1634062,18.7111519 C53.7183281,18.2639116 52.9962187,18.2639116 52.5504375,18.7111519 L49.5466875,21.7247333 C49.1009062,22.1719736 49.1009062,22.8971519 49.5466875,23.3436868 C49.768875,23.567307 50.061375,23.6787643 50.3531719,23.6787643" id="Fill-tax-16" fill="#D14200"></path>
                        <path d="M36.5928047,23.3377612 C36.8156953,23.560676 37.1074922,23.6735442 37.3992891,23.6735442 C37.6910859,23.6735442 37.9835859,23.560676 38.2057734,23.3377612 C38.6515547,22.8905209 38.6515547,22.1660481 38.2057734,21.7195132 L35.2020234,18.7059318 C34.7562422,18.2586915 34.0341328,18.2586915 33.5890547,18.7059318 C33.1432734,19.1517612 33.1432734,19.8769395 33.5890547,20.3241798 L36.5928047,23.3377612 Z" id="Fill-tax-18" fill="#D14200"></path>
                        <path d="M33.4816172,59.1098612 C34.1116172,59.1098612 34.6227891,58.5970163 34.6227891,57.9656597 L34.6227891,51.7903574 L35.4665391,51.7903574 C36.0965391,51.7903574 36.6070078,51.2782178 36.6070078,50.6461558 C36.6070078,50.0140938 36.0965391,49.5019543 35.4665391,49.5019543 L31.4973984,49.5019543 C30.8673984,49.5019543 30.3562266,50.0140938 30.3562266,50.6461558 C30.3562266,51.2782178 30.8673984,51.7903574 31.4973984,51.7903574 L32.3411484,51.7903574 L32.3411484,57.9656597 C32.3411484,58.5970163 32.8516172,59.1098612 33.4816172,59.1098612" id="Fill-tax-20" fill="#D14200"></path>
                        <path d="M41.3028984,55.6971496 L42.1417266,53.677514 L42.9805547,55.6971496 L41.3028984,55.6971496 Z M42.1417266,49.5571186 C41.6811797,49.5571186 41.2656328,49.8350566 41.0884453,50.2618395 L38.0713359,57.5263202 C37.8294609,58.1097078 38.1043828,58.7791574 38.6858672,59.0225295 C39.2673516,59.2659016 39.9353203,58.9900798 40.1771953,58.4066922 L40.3522734,57.9862581 L43.9311797,57.9862581 L44.1055547,58.4066922 C44.2883672,58.8461729 44.7123516,59.1114132 45.1588359,59.1107078 C45.3050859,59.1107078 45.4541484,59.0824907 45.5975859,59.0225295 C46.1790703,58.7791574 46.4539922,58.1097078 46.2114141,57.5263202 L43.1943047,50.2618395 C43.0171172,49.8350566 42.6022734,49.5571186 42.1417266,49.5571186 L42.1417266,49.5571186 Z" id="Fill-tax-22" fill="#D14200"></path>
                        <path d="M53.926875,50.0213597 L52.509375,52.2081814 L51.091875,50.0213597 C50.7480469,49.4915845 50.0421094,49.3413287 49.5140625,49.6855767 C48.9860156,50.0305302 48.83625,50.7394837 49.179375,51.2692589 L51.1488281,54.3075302 L49.179375,57.3458016 C48.8355469,57.8755767 48.9860156,58.5845302 49.5140625,58.9287783 C49.7060156,59.0543442 49.9211719,59.1143054 50.1342187,59.1143054 C50.5075781,59.1143054 50.8732031,58.9308946 51.091875,58.5937008 L52.509375,56.4068791 L53.926875,58.5937008 C54.1455469,58.9308946 54.5111719,59.1143054 54.8838281,59.1143054 C55.0975781,59.1143054 55.3127344,59.0543442 55.5053906,58.9287783 C56.0334375,58.5845302 56.1825,57.8755767 55.839375,57.3458016 L53.8699219,54.3075302 L55.839375,51.2692589 C56.1825,50.7394837 56.0334375,50.0305302 55.5053906,49.6855767 C54.9766406,49.3413287 54.27,49.4915845 53.926875,50.0213597" id="Fill-tax-24" fill="#D14200"></path>
                    </g>
                </g>
            </g>
        </g>
    </g>
</svg>