<?xml version="1.0" encoding="UTF-8"?>
<svg width="90px" height="91px" viewBox="0 0 90 91" version="1.1" xmlns="http://www.w3.org/2000/svg" xmlns:xlink="http://www.w3.org/1999/xlink">
    <!-- Generator: Sketch 63.1 (92452) - https://sketch.com -->
    <title>repairs</title>
    <desc>Created with Sketch.</desc>
    <defs>
        <polygon id="path-repairs-1" points="0.0003515625 0.310599225 89.6899219 0.310599225 89.6899219 90.2945736 0.0003515625 90.2945736"></polygon>
    </defs>
    <g id="Page-repairs-1" stroke="none" stroke-width="1" fill="none" fill-rule="evenodd">
        <g id="Home-repairs-page" transform="translate(-393.000000, -1554.000000)">
            <g id="repairs" transform="translate(393.000000, 1554.000000)">
                <g id="Group-repairs-10">
                    <g>
                        <g id="Group-repairs-3" transform="translate(0.000000, 0.395039)">
                            <mask id="mask-repairs-2" fill="white">
                                <use xlink:href="#path-repairs-1"></use>
                            </mask>
                            <g id="Clip-repairs-2"></g>
                            <path d="M75.0160547,75.5725372 C67.2844922,83.3258783 56.6335547,88.1121961 44.8442578,88.1121961 C33.0535547,88.1121961 22.4026172,83.3258783 14.6731641,75.5725372 C6.94511719,67.8177853 2.17511719,57.135514 2.17511719,45.3033977 C2.17511719,33.4733977 6.94511719,22.7890101 14.6731641,15.0342581 C22.4026172,7.28373876 33.0535547,2.4967155 44.8442578,2.49248295 C56.6335547,2.4967155 67.2866016,7.28091705 75.0160547,15.0342581 C82.7441016,22.7890101 87.5105859,33.4733977 87.5133984,45.3033977 C87.5133984,57.135514 82.7441016,67.8191961 75.0160547,75.5725372 M76.5544922,13.4900798 C68.4390234,5.34804884 57.2291016,0.312010078 44.8442578,0.310599225 C32.4601172,0.312010078 21.2508984,5.34804884 13.1354297,13.4900798 C5.01996094,21.6335217 0.0003515625,32.8780178 0.0003515625,45.3033977 C0.0003515625,57.7287775 5.01996094,68.9732736 13.1354297,77.1145992 C21.2508984,85.2566302 32.4601172,90.2947853 44.8442578,90.2947853 C57.2291016,90.2947853 68.4362109,85.2566302 76.5544922,77.1145992 C84.6699609,68.9732736 89.6902734,57.7287775 89.6902734,45.3033977 C89.6874609,32.8780178 84.6713672,21.6335217 76.5544922,13.4900798" id="Fill-1" fill="#D14200" mask="url(#mask-repairs-2)"></path>
                        </g>
                        <path d="M71.6033672,65.5825008 L64.6220391,58.5790279 C63.5561016,57.5096016 61.8236016,57.5110124 60.7583672,58.5790279 L57.1161797,62.2331364 C56.6007891,62.750214 56.3174297,63.4387101 56.3174297,64.1716481 C56.3174297,64.9038806 56.6007891,65.5923767 57.1161797,66.1094543 L64.0968047,73.1129271 C60.4658672,74.0920589 56.6127422,73.0600202 53.9197734,70.3589426 C50.7451641,67.1739426 49.9232109,62.3107333 51.8729766,58.2573535 C52.0656328,57.8587876 51.9847734,57.3805085 51.6718828,57.0672992 L46.3815703,51.7547333 L50.3169609,47.8071674 L55.6150078,53.122555 C55.9250859,53.4343535 56.4018047,53.5147721 56.7983672,53.3257178 C60.8293828,51.3850899 65.6612578,52.194214 68.8218047,55.3361829 C71.5428984,58.041493 72.5828203,61.921338 71.6033672,65.5825008 L71.6033672,65.5825008 Z M44.8775859,50.3142527 L42.8870391,48.3171907 L59.3246953,31.8257333 C59.4393047,31.7100434 59.5264922,31.5675473 59.5771172,31.4130589 L60.6732891,28.0425318 L65.3603203,23.3401597 L69.7731328,27.7674155 L65.0853984,32.470493 L61.7258672,33.5702527 C61.5711797,33.6210434 61.4291484,33.7085163 61.3138359,33.8242062 L44.8775859,50.3142527 Z M44.0303203,58.420307 L30.2610234,72.2339659 C29.4629766,73.0346248 28.4005547,73.4755163 27.2678203,73.4755163 C26.1357891,73.4755163 25.0726641,73.0346248 24.2739141,72.2339659 L21.0388359,68.9882992 C19.3886016,67.3319581 19.3886016,64.6372295 21.0388359,62.9808884 L34.8074297,49.1672295 C35.6328984,48.3397643 36.7171172,47.9263845 37.8013359,47.9263845 C38.8855547,47.9263845 39.9697734,48.3404698 40.7952422,49.1672295 L44.0303203,52.4136016 C45.6812578,54.0699426 45.6812578,56.7639659 44.0303203,58.420307 L44.0303203,58.420307 Z M34.5831328,40.9066868 C30.5514141,42.8451984 25.7202422,42.0367798 22.5596953,38.8955163 C19.8386016,36.1909116 18.7986797,32.3110667 19.7781328,28.6491984 L26.7594609,35.6526713 C27.8246953,36.7228031 29.5571953,36.7213922 30.6231328,35.6526713 L34.2646172,31.9992682 C34.7807109,31.4814853 35.0640703,30.7936946 35.0640703,30.061462 C35.0640703,29.3278186 34.7807109,28.6400279 34.2646172,28.122245 L27.2846953,21.1194775 C30.9163359,20.1410512 34.7694609,21.1723845 37.4617266,23.873462 C40.6356328,27.0591674 41.4582891,31.9216713 39.5085234,35.9743457 C39.3158672,36.3736171 39.3967266,36.8511907 39.7096172,37.1651054 L45.3866484,42.8607178 L41.4547734,46.805462 L35.7664922,41.1098496 C35.4557109,40.7973457 34.9803984,40.7148109 34.5831328,40.9066868 L34.5831328,40.9066868 Z M70.2843047,53.8540822 C66.7159453,50.3079039 61.2357891,49.2328341 56.5803984,51.1417178 L51.7864922,46.3321209 L62.6075859,35.4756093 L65.9671172,34.3758496 C66.1232109,34.3243535 66.2659453,34.2354698 66.3791484,34.1211907 L71.9781328,28.504586 C72.3831328,28.0982605 72.3831328,27.4365705 71.9781328,27.030245 L66.0957891,21.1279426 C65.6893828,20.7216171 65.0305547,20.7216171 64.6255547,21.1279426 L59.0272734,26.7445473 C58.9126641,26.8595318 58.8247734,27.0034388 58.7741484,27.1586326 L57.6772734,30.5298651 L46.8561797,41.3863767 L41.6846953,36.1979659 C43.6070391,31.5097023 42.5150859,25.9939736 38.9312578,22.3984155 C35.2398516,18.6949271 29.7589922,17.6452527 24.9686016,19.7262605 C24.6521953,19.8624078 24.4236797,20.1474 24.3596953,20.4867101 C24.2943047,20.8267256 24.4004766,21.1752062 24.6451641,21.4199891 L32.7957891,29.596586 C33.0503203,29.8526558 33.0503203,30.2688574 32.7957891,30.5249271 L29.1536016,34.1776248 C28.9075078,34.4252295 28.4750859,34.4252295 28.2289922,34.1776248 L20.0790703,26.0017333 C19.8343828,25.7555395 19.4856328,25.6511364 19.1502422,25.7146248 C18.8113359,25.7788186 18.5279766,26.0073767 18.3901641,26.325524 C16.3061016,31.1555783 17.3685234,36.6720124 21.0971953,40.3783225 C24.6648516,43.9237953 30.1443047,44.9981597 34.8011016,43.0899814 L37.5671953,45.857369 C36.0189141,45.9159194 34.4938359,46.5331674 33.3378984,47.6935938 L19.5693047,61.5072527 C18.3789141,62.7008341 17.7228984,64.2915705 17.7228984,65.9845938 C17.7228984,67.6783225 18.3789141,69.2690589 19.5693047,70.4626403 L22.8050859,73.7090124 C23.9947734,74.9025938 25.5803203,75.5607566 27.2678203,75.5607566 C28.9560234,75.5607566 30.5415703,74.9032992 31.7312578,73.7090124 L45.4998516,59.8946481 C46.6557891,58.7356326 47.2703203,57.2083845 47.3300859,55.6564465 L49.6968047,58.0344388 C47.7744609,62.720586 48.8657109,68.2370202 52.4495391,71.8325783 C54.8823516,74.2726481 58.0907109,75.561462 61.3672734,75.561462 C63.0639141,75.561462 64.7795391,75.2150977 66.4143047,74.5054388 C66.7307109,74.3678806 66.9585234,74.0828884 67.0218047,73.7435783 C67.0864922,73.4042682 66.9796172,73.0557876 66.7356328,72.8110047 L58.5857109,64.6344078 C58.3311797,64.3790434 58.3311797,63.9628419 58.5857109,63.7074775 L62.2278984,60.053369 C62.4824297,59.7994155 62.8972734,59.7980047 63.1518047,60.053369 L71.3017266,68.2292605 C71.5457109,68.4747488 71.8930547,68.5826791 72.2312578,68.5170744 C72.4365703,68.478276 72.6236016,68.3788109 72.7719609,68.2299659 C72.8654766,68.1361442 72.9386016,68.0275085 72.9913359,67.9068806 C75.0746953,63.0761209 74.0129766,57.5603922 70.2843047,53.8540822 L70.2843047,53.8540822 Z" id="Fill-4" fill="#D14200"></path>
                        <path d="M39.5102812,49.9542736 L39.5102812,49.9535682 C39.103875,49.5486535 38.4450469,49.5479481 38.0400469,49.9542736 L21.8231719,66.2242271 C21.4181719,66.6312581 21.4181719,67.2922426 21.8231719,67.6985682 C22.0256719,67.901731 22.2914531,68.0033124 22.5579375,68.0033124 C22.8244219,68.0033124 23.0895,67.901731 23.2934063,67.6985682 L39.5102812,51.4286147 C39.9152812,51.0222891 39.9152812,50.3605992 39.5102812,49.9542736" id="Fill-6" fill="#D14200"></path>
                        <path d="M41.7761719,53.7025566 L25.56,69.9725101 C25.363125,70.169324 25.2548437,70.4317426 25.2548437,70.710386 C25.2548437,70.9890295 25.363125,71.2514481 25.56,71.4475566 C25.7625,71.6507194 26.0282812,71.7530062 26.2940625,71.7530062 C26.5605469,71.7530062 26.8263281,71.6507194 27.0288281,71.4475566 L43.2464062,55.1776031 C43.6514062,54.7712775 43.6514062,54.1088822 43.2464062,53.7025566 C42.8414062,53.296231 42.1825781,53.296231 41.7761719,53.7025566" id="Fill-8" fill="#D14200"></path>
                    </g>
                </g>
            </g>
        </g>
    </g>
</svg>