<svg width="13" height="12" viewBox="0 0 13 12" fill="none" xmlns="http://www.w3.org/2000/svg">
<path d="M10.6683 8.00062C10.1446 8.00096 9.64196 8.20669 9.26831 8.57362L4.00131 6.22762V5.78062L9.26831 3.42762C9.59818 3.75095 10.0298 3.95014 10.4899 3.99135C10.9499 4.03257 11.4101 3.91327 11.7922 3.65371C12.1742 3.39415 12.4547 3.01034 12.5859 2.56746C12.7171 2.12459 12.691 1.64994 12.512 1.22414C12.3329 0.798342 12.012 0.447638 11.6038 0.23159C11.1955 0.0155414 10.725 -0.0525309 10.2723 0.0389336C9.81952 0.130398 9.41237 0.37576 9.11999 0.73335C8.82761 1.09094 8.66801 1.53871 8.66831 2.00062V2.22762L3.40131 4.57362C3.12018 4.29755 2.76377 4.11067 2.37681 4.03644C1.98985 3.9622 1.58958 4.00392 1.22625 4.15635C0.862915 4.30879 0.552701 4.56515 0.334542 4.89326C0.116383 5.22136 0 5.6066 0 6.00062C0 6.39463 0.116383 6.77987 0.334542 7.10798C0.552701 7.43609 0.862915 7.69245 1.22625 7.84488C1.58958 7.99732 1.98985 8.03903 2.37681 7.9648C2.76377 7.89057 3.12018 7.70369 3.40131 7.42762L8.66831 9.78062V10.0006C8.66831 10.3962 8.78561 10.7829 9.00537 11.1118C9.22513 11.4407 9.53749 11.697 9.90294 11.8484C10.2684 11.9998 10.6705 12.0394 11.0585 11.9622C11.4465 11.885 11.8028 11.6945 12.0825 11.4148C12.3622 11.1351 12.5527 10.7788 12.6299 10.3908C12.7071 10.0028 12.6674 9.6007 12.5161 9.23525C12.3647 8.8698 12.1083 8.55744 11.7795 8.33768C11.4506 8.11792 11.0639 8.00062 10.6683 8.00062Z" fill="white"/>
</svg>
