<svg width="14" height="14" viewBox="0 0 14 14" fill="none" xmlns="http://www.w3.org/2000/svg">
<path d="M12.25 5.25V2.112C12.2498 1.88025 12.1577 1.65803 11.994 1.494L10.756 0.256C10.6747 0.174766 10.5782 0.110347 10.472 0.0664216C10.3658 0.0224965 10.2519 -7.37814e-05 10.137 1.81193e-07H2.625C2.39294 1.81193e-07 2.17038 0.0921874 2.00628 0.256282C1.84219 0.420376 1.75 0.642936 1.75 0.875V5.25C1.28587 5.25 0.840752 5.43437 0.512563 5.76256C0.184374 6.09075 0 6.53587 0 7L0 10.063C0 10.304 0.196 10.5 0.438 10.5H1.75V13.125C1.75 13.608 2.142 14 2.625 14H11.375C11.6071 14 11.8296 13.9078 11.9937 13.7437C12.1578 13.5796 12.25 13.3571 12.25 13.125V10.5H13.563C13.6205 10.5 13.6774 10.4887 13.7305 10.4666C13.7835 10.4446 13.8318 10.4123 13.8724 10.3717C13.913 10.331 13.9451 10.2827 13.967 10.2295C13.9889 10.1764 14.0001 10.1195 14 10.062V7C14 6.53587 13.8156 6.09075 13.4874 5.76256C13.1592 5.43437 12.7141 5.25 12.25 5.25ZM10.5 12.25H3.5V9.625H10.5V12.25ZM10.5 6.125H3.5V1.75H8.75V3.063C8.75 3.304 8.946 3.5 9.188 3.5H10.5V6.125ZM11.813 8.094C11.6389 8.094 11.4719 8.02483 11.3488 7.90172C11.2257 7.7786 11.1565 7.61161 11.1565 7.4375C11.1565 7.26339 11.2257 7.0964 11.3488 6.97328C11.4719 6.85017 11.6389 6.781 11.813 6.781C11.9871 6.781 12.1541 6.85017 12.2772 6.97328C12.4003 7.0964 12.4695 7.26339 12.4695 7.4375C12.4695 7.61161 12.4003 7.7786 12.2772 7.90172C12.1541 8.02483 11.9871 8.094 11.813 8.094Z" fill="white"/>
</svg>
