<svg class="clickable" width="20" height="20" viewBox="0 0 20 20" fill="none" xmlns="http://www.w3.org/2000/svg">
<path d="M10 0C4.478 0 0 4.48 0 10C0 15.524 4.478 20 10 20C15.522 20 20 15.524 20 10C20 4.48 15.522 0 10 0ZM10 18.065C8.9407 18.0657 7.89167 17.8575 6.91288 17.4524C5.93409 17.0474 5.04475 16.4533 4.29572 15.7043C3.54668 14.9552 2.95264 14.0659 2.54757 13.0871C2.1425 12.1083 1.93434 11.0593 1.935 10C1.93461 8.94078 2.14294 7.89186 2.54811 6.91319C2.95327 5.93452 3.54732 5.04529 4.2963 4.2963C5.04529 3.54732 5.93452 2.95327 6.91319 2.54811C7.89186 2.14294 8.94078 1.93461 10 1.935C11.0592 1.93461 12.1081 2.14294 13.0868 2.54811C14.0655 2.95327 14.9547 3.54732 15.7037 4.2963C16.4527 5.04529 17.0467 5.93452 17.4519 6.91319C17.8571 7.89186 18.0654 8.94078 18.065 10C18.0657 11.0593 17.8575 12.1083 17.4524 13.0871C17.0474 14.0659 16.4533 14.9552 15.7043 15.7043C14.9552 16.4533 14.0659 17.0474 13.0871 17.4524C12.1083 17.8575 11.0593 18.0657 10 18.065ZM10 4.435C10.4493 4.435 10.8802 4.61347 11.1978 4.93116C11.5155 5.24885 11.694 5.67972 11.694 6.129C11.694 6.57828 11.5155 7.00915 11.1978 7.32684C10.8802 7.64453 10.4493 7.823 10 7.823C9.55072 7.823 9.11985 7.64453 8.80216 7.32684C8.48447 7.00915 8.306 6.57828 8.306 6.129C8.306 5.67972 8.48447 5.24885 8.80216 4.93116C9.11985 4.61347 9.55072 4.435 10 4.435ZM12.258 14.677C12.258 14.8054 12.207 14.9285 12.1162 15.0192C12.0255 15.11 11.9024 15.161 11.774 15.161H8.226C8.09764 15.161 7.97453 15.11 7.88376 15.0192C7.79299 14.9285 7.742 14.8054 7.742 14.677V13.71C7.742 13.442 7.959 13.226 8.226 13.226H8.71V10.646H8.226C8.16236 10.646 8.09934 10.6334 8.04055 10.6091C7.98176 10.5847 7.92836 10.5489 7.88341 10.5039C7.83845 10.4588 7.80282 10.4054 7.77855 10.3465C7.75429 10.2877 7.74187 10.2246 7.742 10.161V9.194C7.742 8.926 7.959 8.71 8.226 8.71H10.806C11.074 8.71 11.29 8.926 11.29 9.194V13.226H11.774C12.041 13.226 12.258 13.442 12.258 13.71V14.677Z" fill="#666666"/>
</svg>
